<svg xmlns="http://www.w3.org/2000/svg" version="1.1" xmlns:xlink="http://www.w3.org/1999/xlink" xmlns:svgjs="http://svgjs.dev/svgjs" width="1440" height="560" preserveAspectRatio="none" viewBox="0 0 1440 560"><g mask="url(&quot;#SvgjsMask1060&quot;)" fill="none"><rect width="1440" height="560" x="0" y="0" fill="rgba(75, 85, 99, 1)"></rect><path d="M-98.65 387.34L-98.65 387.34" stroke="rgba(75, 85, 99, 1)" stroke-width="1.5"></path><path d="M-98.65 387.34L-78.92 554.67" stroke="rgba(75, 85, 99, 1)" stroke-width="1.5"></path><path d="M-78.92 554.67L-78.92 554.67" stroke="rgba(75, 85, 99, 1)" stroke-width="1.5"></path><path d="M-78.92 554.67L41.57 651.35" stroke="rgba(75, 85, 99, 1)" stroke-width="1.5"></path><path d="M-78.92 554.67L-110.3 708.18" stroke="rgba(75, 85, 99, 1)" stroke-width="1.5"></path><path d="M-110.3 708.18L-110.3 708.18" stroke="rgba(75, 85, 99, 1)" stroke-width="1.5"></path><path d="M-110.3 708.18L41.57 651.35" stroke="rgba(75, 85, 99, 1)" stroke-width="1.5"></path><path d="M-110.3 708.18L110.28 532.75" stroke="rgba(75, 85, 99, 1)" stroke-width="1.5"></path><path d="M-110.3 708.18L-98.65 387.34" stroke="rgba(75, 85, 99, 1)" stroke-width="1.5"></path><path d="M105.65 394.34L105.65 394.34" stroke="rgba(75, 85, 99, 1)" stroke-width="1.5"></path><path d="M105.65 394.34L212.77 397.23" stroke="rgba(75, 85, 99, 1)" stroke-width="1.5"></path><path d="M105.65 394.34L110.28 532.75" stroke="rgba(75, 85, 99, 1)" stroke-width="1.5"></path><path d="M105.65 394.34L195.91 528.23" stroke="rgba(75, 85, 99, 1)" stroke-width="1.5"></path><path d="M110.28 532.75L110.28 532.75" stroke="rgba(75, 85, 99, 1)" stroke-width="1.5"></path><path d="M110.28 532.75L195.91 528.23" stroke="rgba(75, 85, 99, 1)" stroke-width="1.5"></path><path d="M110.28 532.75L41.57 651.35" stroke="rgba(75, 85, 99, 1)" stroke-width="1.5"></path><path d="M41.57 651.35L41.57 651.35" stroke="rgba(75, 85, 99, 1)" stroke-width="1.5"></path><path d="M41.57 651.35L213.93 644.67" stroke="rgba(75, 85, 99, 1)" stroke-width="1.5"></path><path d="M41.57 651.35L195.91 528.23" stroke="rgba(75, 85, 99, 1)" stroke-width="1.5"></path><path d="M212.77 397.23L212.77 397.23" stroke="rgba(75, 85, 99, 1)" stroke-width="1.5"></path><path d="M195.91 528.23L195.91 528.23" stroke="rgba(75, 85, 99, 1)" stroke-width="1.5"></path><path d="M195.91 528.23L213.93 644.67" stroke="rgba(75, 85, 99, 1)" stroke-width="1.5"></path><path d="M195.91 528.23L212.77 397.23" stroke="rgba(75, 85, 99, 1)" stroke-width="1.5"></path><path d="M195.91 528.23L354.3 410.19" stroke="rgba(75, 85, 99, 1)" stroke-width="1.5"></path><path d="M213.93 644.67L213.93 644.67" stroke="rgba(75, 85, 99, 1)" stroke-width="1.5"></path><path d="M354.3 410.19L354.3 410.19" stroke="rgba(75, 85, 99, 1)" stroke-width="1.5"></path><path d="M354.3 410.19L212.77 397.23" stroke="rgba(75, 85, 99, 1)" stroke-width="1.5"></path><path d="M354.3 410.19L503.73 396.53" stroke="rgba(75, 85, 99, 1)" stroke-width="1.5"></path><path d="M354.3 410.19L505.47 550.26" stroke="rgba(75, 85, 99, 1)" stroke-width="1.5"></path><path d="M411.65 651.61L411.65 651.61" stroke="rgba(75, 85, 99, 1)" stroke-width="1.5"></path><path d="M411.65 651.61L519.16 637.94" stroke="rgba(75, 85, 99, 1)" stroke-width="1.5"></path><path d="M411.65 651.61L505.47 550.26" stroke="rgba(75, 85, 99, 1)" stroke-width="1.5"></path><path d="M411.65 651.61L213.93 644.67" stroke="rgba(75, 85, 99, 1)" stroke-width="1.5"></path><path d="M411.65 651.61L354.3 410.19" stroke="rgba(75, 85, 99, 1)" stroke-width="1.5"></path><path d="M411.65 651.61L195.91 528.23" stroke="rgba(75, 85, 99, 1)" stroke-width="1.5"></path><path d="M503.73 396.53L503.73 396.53" stroke="rgba(75, 85, 99, 1)" stroke-width="1.5"></path><path d="M503.73 396.53L505.47 550.26" stroke="rgba(75, 85, 99, 1)" stroke-width="1.5"></path><path d="M503.73 396.53L649.45 510.55" stroke="rgba(75, 85, 99, 1)" stroke-width="1.5"></path><path d="M505.47 550.26L505.47 550.26" stroke="rgba(75, 85, 99, 1)" stroke-width="1.5"></path><path d="M505.47 550.26L519.16 637.94" stroke="rgba(75, 85, 99, 1)" stroke-width="1.5"></path><path d="M505.47 550.26L649.45 510.55" stroke="rgba(75, 85, 99, 1)" stroke-width="1.5"></path><path d="M519.16 637.94L519.16 637.94" stroke="rgba(75, 85, 99, 1)" stroke-width="1.5"></path><path d="M519.16 637.94L649.45 510.55" stroke="rgba(75, 85, 99, 1)" stroke-width="1.5"></path><path d="M519.16 637.94L503.73 396.53" stroke="rgba(75, 85, 99, 1)" stroke-width="1.5"></path><path d="M519.16 637.94L354.3 410.19" stroke="rgba(75, 85, 99, 1)" stroke-width="1.5"></path><path d="M519.16 637.94L213.93 644.67" stroke="rgba(75, 85, 99, 1)" stroke-width="1.5"></path><path d="M710.81 346.87L710.81 346.87" stroke="rgba(75, 85, 99, 1)" stroke-width="1.5"></path><path d="M710.81 346.87L790.62 348.14" stroke="rgba(75, 85, 99, 1)" stroke-width="1.5"></path><path d="M710.81 346.87L793.09 489.72" stroke="rgba(75, 85, 99, 1)" stroke-width="1.5"></path><path d="M710.81 346.87L649.45 510.55" stroke="rgba(75, 85, 99, 1)" stroke-width="1.5"></path><path d="M710.81 346.87L844.78 205.75" stroke="rgba(75, 85, 99, 1)" stroke-width="1.5"></path><path d="M710.81 346.87L503.73 396.53" stroke="rgba(75, 85, 99, 1)" stroke-width="1.5"></path><path d="M710.81 346.87L992.24 392.87" stroke="rgba(75, 85, 99, 1)" stroke-width="1.5"></path><path d="M649.45 510.55L649.45 510.55" stroke="rgba(75, 85, 99, 1)" stroke-width="1.5"></path><path d="M649.45 510.55L793.09 489.72" stroke="rgba(75, 85, 99, 1)" stroke-width="1.5"></path><path d="M861.84 50.01L861.84 50.01" stroke="rgba(75, 85, 99, 1)" stroke-width="1.5"></path><path d="M861.84 50.01L951.82 87.5" stroke="rgba(75, 85, 99, 1)" stroke-width="1.5"></path><path d="M861.84 50.01L974.98 -52.76" stroke="rgba(75, 85, 99, 1)" stroke-width="1.5"></path><path d="M844.78 205.75L844.78 205.75" stroke="rgba(75, 85, 99, 1)" stroke-width="1.5"></path><path d="M844.78 205.75L790.62 348.14" stroke="rgba(75, 85, 99, 1)" stroke-width="1.5"></path><path d="M844.78 205.75L861.84 50.01" stroke="rgba(75, 85, 99, 1)" stroke-width="1.5"></path><path d="M844.78 205.75L1001.58 212.76" stroke="rgba(75, 85, 99, 1)" stroke-width="1.5"></path><path d="M844.78 205.75L951.82 87.5" stroke="rgba(75, 85, 99, 1)" stroke-width="1.5"></path><path d="M844.78 205.75L992.24 392.87" stroke="rgba(75, 85, 99, 1)" stroke-width="1.5"></path><path d="M790.62 348.14L790.62 348.14" stroke="rgba(75, 85, 99, 1)" stroke-width="1.5"></path><path d="M790.62 348.14L793.09 489.72" stroke="rgba(75, 85, 99, 1)" stroke-width="1.5"></path><path d="M790.62 348.14L992.24 392.87" stroke="rgba(75, 85, 99, 1)" stroke-width="1.5"></path><path d="M790.62 348.14L649.45 510.55" stroke="rgba(75, 85, 99, 1)" stroke-width="1.5"></path><path d="M790.62 348.14L1001.58 212.76" stroke="rgba(75, 85, 99, 1)" stroke-width="1.5"></path><path d="M793.09 489.72L793.09 489.72" stroke="rgba(75, 85, 99, 1)" stroke-width="1.5"></path><path d="M793.09 489.72L839.86 660.15" stroke="rgba(75, 85, 99, 1)" stroke-width="1.5"></path><path d="M793.09 489.72L981.9 547.19" stroke="rgba(75, 85, 99, 1)" stroke-width="1.5"></path><path d="M839.86 660.15L839.86 660.15" stroke="rgba(75, 85, 99, 1)" stroke-width="1.5"></path><path d="M839.86 660.15L1000.89 648.72" stroke="rgba(75, 85, 99, 1)" stroke-width="1.5"></path><path d="M974.98 -52.76L974.98 -52.76" stroke="rgba(75, 85, 99, 1)" stroke-width="1.5"></path><path d="M974.98 -52.76L951.82 87.5" stroke="rgba(75, 85, 99, 1)" stroke-width="1.5"></path><path d="M974.98 -52.76L1098.84 53.82" stroke="rgba(75, 85, 99, 1)" stroke-width="1.5"></path><path d="M951.82 87.5L951.82 87.5" stroke="rgba(75, 85, 99, 1)" stroke-width="1.5"></path><path d="M951.82 87.5L1001.58 212.76" stroke="rgba(75, 85, 99, 1)" stroke-width="1.5"></path><path d="M951.82 87.5L1098.84 53.82" stroke="rgba(75, 85, 99, 1)" stroke-width="1.5"></path><path d="M1001.58 212.76L1001.58 212.76" stroke="rgba(75, 85, 99, 1)" stroke-width="1.5"></path><path d="M1001.58 212.76L992.24 392.87" stroke="rgba(75, 85, 99, 1)" stroke-width="1.5"></path><path d="M1001.58 212.76L1098.84 53.82" stroke="rgba(75, 85, 99, 1)" stroke-width="1.5"></path><path d="M992.24 392.87L992.24 392.87" stroke="rgba(75, 85, 99, 1)" stroke-width="1.5"></path><path d="M992.24 392.87L981.9 547.19" stroke="rgba(75, 85, 99, 1)" stroke-width="1.5"></path><path d="M992.24 392.87L1152.9 339.58" stroke="rgba(75, 85, 99, 1)" stroke-width="1.5"></path><path d="M981.9 547.19L981.9 547.19" stroke="rgba(75, 85, 99, 1)" stroke-width="1.5"></path><path d="M981.9 547.19L1000.89 648.72" stroke="rgba(75, 85, 99, 1)" stroke-width="1.5"></path><path d="M981.9 547.19L1091.55 540.63" stroke="rgba(75, 85, 99, 1)" stroke-width="1.5"></path><path d="M981.9 547.19L839.86 660.15" stroke="rgba(75, 85, 99, 1)" stroke-width="1.5"></path><path d="M981.9 547.19L1141.16 699.04" stroke="rgba(75, 85, 99, 1)" stroke-width="1.5"></path><path d="M1000.89 648.72L1000.89 648.72" stroke="rgba(75, 85, 99, 1)" stroke-width="1.5"></path><path d="M1000.89 648.72L1091.55 540.63" stroke="rgba(75, 85, 99, 1)" stroke-width="1.5"></path><path d="M1000.89 648.72L1141.16 699.04" stroke="rgba(75, 85, 99, 1)" stroke-width="1.5"></path><path d="M1000.89 648.72L992.24 392.87" stroke="rgba(75, 85, 99, 1)" stroke-width="1.5"></path><path d="M1000.89 648.72L793.09 489.72" stroke="rgba(75, 85, 99, 1)" stroke-width="1.5"></path><path d="M1142.74 -109.06L1142.74 -109.06" stroke="rgba(75, 85, 99, 1)" stroke-width="1.5"></path><path d="M1142.74 -109.06L1248.14 -54.73" stroke="rgba(75, 85, 99, 1)" stroke-width="1.5"></path><path d="M1142.74 -109.06L1098.84 53.82" stroke="rgba(75, 85, 99, 1)" stroke-width="1.5"></path><path d="M1142.74 -109.06L974.98 -52.76" stroke="rgba(75, 85, 99, 1)" stroke-width="1.5"></path><path d="M1142.74 -109.06L1275.13 86.13" stroke="rgba(75, 85, 99, 1)" stroke-width="1.5"></path><path d="M1098.84 53.82L1098.84 53.82" stroke="rgba(75, 85, 99, 1)" stroke-width="1.5"></path><path d="M1152.9 339.58L1152.9 339.58" stroke="rgba(75, 85, 99, 1)" stroke-width="1.5"></path><path d="M1152.9 339.58L1267.08 254.76" stroke="rgba(75, 85, 99, 1)" stroke-width="1.5"></path><path d="M1152.9 339.58L1305.76 400.45" stroke="rgba(75, 85, 99, 1)" stroke-width="1.5"></path><path d="M1091.55 540.63L1091.55 540.63" stroke="rgba(75, 85, 99, 1)" stroke-width="1.5"></path><path d="M1091.55 540.63L1141.16 699.04" stroke="rgba(75, 85, 99, 1)" stroke-width="1.5"></path><path d="M1091.55 540.63L992.24 392.87" stroke="rgba(75, 85, 99, 1)" stroke-width="1.5"></path><path d="M1091.55 540.63L1278.48 539.03" stroke="rgba(75, 85, 99, 1)" stroke-width="1.5"></path><path d="M1091.55 540.63L1152.9 339.58" stroke="rgba(75, 85, 99, 1)" stroke-width="1.5"></path><path d="M1141.16 699.04L1141.16 699.04" stroke="rgba(75, 85, 99, 1)" stroke-width="1.5"></path><path d="M1141.16 699.04L1293.29 663.44" stroke="rgba(75, 85, 99, 1)" stroke-width="1.5"></path><path d="M1141.16 699.04L1278.48 539.03" stroke="rgba(75, 85, 99, 1)" stroke-width="1.5"></path><path d="M1248.14 -54.73L1248.14 -54.73" stroke="rgba(75, 85, 99, 1)" stroke-width="1.5"></path><path d="M1248.14 -54.73L1275.13 86.13" stroke="rgba(75, 85, 99, 1)" stroke-width="1.5"></path><path d="M1248.14 -54.73L1405.21 -103.55" stroke="rgba(75, 85, 99, 1)" stroke-width="1.5"></path><path d="M1248.14 -54.73L1098.84 53.82" stroke="rgba(75, 85, 99, 1)" stroke-width="1.5"></path><path d="M1275.13 86.13L1275.13 86.13" stroke="rgba(75, 85, 99, 1)" stroke-width="1.5"></path><path d="M1275.13 86.13L1267.08 254.76" stroke="rgba(75, 85, 99, 1)" stroke-width="1.5"></path><path d="M1275.13 86.13L1098.84 53.82" stroke="rgba(75, 85, 99, 1)" stroke-width="1.5"></path><path d="M1275.13 86.13L1443.58 233.98" stroke="rgba(75, 85, 99, 1)" stroke-width="1.5"></path><path d="M1275.13 86.13L1405.21 -103.55" stroke="rgba(75, 85, 99, 1)" stroke-width="1.5"></path><path d="M1267.08 254.76L1267.08 254.76" stroke="rgba(75, 85, 99, 1)" stroke-width="1.5"></path><path d="M1267.08 254.76L1305.76 400.45" stroke="rgba(75, 85, 99, 1)" stroke-width="1.5"></path><path d="M1305.76 400.45L1305.76 400.45" stroke="rgba(75, 85, 99, 1)" stroke-width="1.5"></path><path d="M1305.76 400.45L1437.53 404.83" stroke="rgba(75, 85, 99, 1)" stroke-width="1.5"></path><path d="M1305.76 400.45L1390.18 511.48" stroke="rgba(75, 85, 99, 1)" stroke-width="1.5"></path><path d="M1305.76 400.45L1278.48 539.03" stroke="rgba(75, 85, 99, 1)" stroke-width="1.5"></path><path d="M1305.76 400.45L1443.58 233.98" stroke="rgba(75, 85, 99, 1)" stroke-width="1.5"></path><path d="M1278.48 539.03L1278.48 539.03" stroke="rgba(75, 85, 99, 1)" stroke-width="1.5"></path><path d="M1278.48 539.03L1390.18 511.48" stroke="rgba(75, 85, 99, 1)" stroke-width="1.5"></path><path d="M1278.48 539.03L1293.29 663.44" stroke="rgba(75, 85, 99, 1)" stroke-width="1.5"></path><path d="M1293.29 663.44L1293.29 663.44" stroke="rgba(75, 85, 99, 1)" stroke-width="1.5"></path><path d="M1293.29 663.44L1404.26 661.37" stroke="rgba(75, 85, 99, 1)" stroke-width="1.5"></path><path d="M1405.21 -103.55L1405.21 -103.55" stroke="rgba(75, 85, 99, 1)" stroke-width="1.5"></path><path d="M1405.21 -103.55L1577.32 -64.87" stroke="rgba(75, 85, 99, 1)" stroke-width="1.5"></path><path d="M1443.58 233.98L1443.58 233.98" stroke="rgba(75, 85, 99, 1)" stroke-width="1.5"></path><path d="M1443.58 233.98L1570.79 261.73" stroke="rgba(75, 85, 99, 1)" stroke-width="1.5"></path><path d="M1443.58 233.98L1437.53 404.83" stroke="rgba(75, 85, 99, 1)" stroke-width="1.5"></path><path d="M1443.58 233.98L1267.08 254.76" stroke="rgba(75, 85, 99, 1)" stroke-width="1.5"></path><path d="M1443.58 233.98L1540.68 68.35" stroke="rgba(75, 85, 99, 1)" stroke-width="1.5"></path><path d="M1443.58 233.98L1608.61 367.89" stroke="rgba(75, 85, 99, 1)" stroke-width="1.5"></path><path d="M1437.53 404.83L1437.53 404.83" stroke="rgba(75, 85, 99, 1)" stroke-width="1.5"></path><path d="M1437.53 404.83L1390.18 511.48" stroke="rgba(75, 85, 99, 1)" stroke-width="1.5"></path><path d="M1437.53 404.83L1608.61 367.89" stroke="rgba(75, 85, 99, 1)" stroke-width="1.5"></path><path d="M1437.53 404.83L1570.79 261.73" stroke="rgba(75, 85, 99, 1)" stroke-width="1.5"></path><path d="M1437.53 404.83L1278.48 539.03" stroke="rgba(75, 85, 99, 1)" stroke-width="1.5"></path><path d="M1390.18 511.48L1390.18 511.48" stroke="rgba(75, 85, 99, 1)" stroke-width="1.5"></path><path d="M1404.26 661.37L1404.26 661.37" stroke="rgba(75, 85, 99, 1)" stroke-width="1.5"></path><path d="M1404.26 661.37L1539.05 672.71" stroke="rgba(75, 85, 99, 1)" stroke-width="1.5"></path><path d="M1404.26 661.37L1390.18 511.48" stroke="rgba(75, 85, 99, 1)" stroke-width="1.5"></path><path d="M1404.26 661.37L1278.48 539.03" stroke="rgba(75, 85, 99, 1)" stroke-width="1.5"></path><path d="M1404.26 661.37L1597.29 554.43" stroke="rgba(75, 85, 99, 1)" stroke-width="1.5"></path><path d="M1577.32 -64.87L1577.32 -64.87" stroke="rgba(75, 85, 99, 1)" stroke-width="1.5"></path><path d="M1577.32 -64.87L1540.68 68.35" stroke="rgba(75, 85, 99, 1)" stroke-width="1.5"></path><path d="M1540.68 68.35L1540.68 68.35" stroke="rgba(75, 85, 99, 1)" stroke-width="1.5"></path><path d="M1540.68 68.35L1570.79 261.73" stroke="rgba(75, 85, 99, 1)" stroke-width="1.5"></path><path d="M1540.68 68.35L1405.21 -103.55" stroke="rgba(75, 85, 99, 1)" stroke-width="1.5"></path><path d="M1540.68 68.35L1275.13 86.13" stroke="rgba(75, 85, 99, 1)" stroke-width="1.5"></path><path d="M1570.79 261.73L1570.79 261.73" stroke="rgba(75, 85, 99, 1)" stroke-width="1.5"></path><path d="M1570.79 261.73L1608.61 367.89" stroke="rgba(75, 85, 99, 1)" stroke-width="1.5"></path><path d="M1570.79 261.73L1597.29 554.43" stroke="rgba(75, 85, 99, 1)" stroke-width="1.5"></path><path d="M1570.79 261.73L1305.76 400.45" stroke="rgba(75, 85, 99, 1)" stroke-width="1.5"></path><path d="M1608.61 367.89L1608.61 367.89" stroke="rgba(75, 85, 99, 1)" stroke-width="1.5"></path><path d="M1608.61 367.89L1597.29 554.43" stroke="rgba(75, 85, 99, 1)" stroke-width="1.5"></path><path d="M1597.29 554.43L1597.29 554.43" stroke="rgba(75, 85, 99, 1)" stroke-width="1.5"></path><path d="M1597.29 554.43L1539.05 672.71" stroke="rgba(75, 85, 99, 1)" stroke-width="1.5"></path><path d="M1539.05 672.71L1539.05 672.71" stroke="rgba(75, 85, 99, 1)" stroke-width="1.5"></path><path d="M1539.05 672.71L1390.18 511.48" stroke="rgba(75, 85, 99, 1)" stroke-width="1.5"></path><path d="M1539.05 672.71L1293.29 663.44" stroke="rgba(75, 85, 99, 1)" stroke-width="1.5"></path><circle r="5" cx="-98.65" cy="387.34" fill="rgba(75, 85, 99, 1)"></circle><circle r="5" cx="-78.92" cy="554.67" fill="rgba(75, 85, 99, 1)"></circle><circle r="5" cx="-110.3" cy="708.18" fill="rgba(75, 85, 99, 1)"></circle><circle r="5" cx="105.65" cy="394.34" fill="rgba(75, 85, 99, 1)"></circle><circle r="5" cx="110.28" cy="532.75" fill="rgba(75, 85, 99, 1)"></circle><circle r="5" cx="41.57" cy="651.35" fill="rgba(75, 85, 99, 1)"></circle><circle r="5" cx="212.77" cy="397.23" fill="rgba(75, 85, 99, 1)"></circle><circle r="5" cx="195.91" cy="528.23" fill="rgba(75, 85, 99, 1)"></circle><circle r="5" cx="213.93" cy="644.67" fill="rgba(75, 85, 99, 1)"></circle><circle r="5" cx="354.3" cy="410.19" fill="rgba(75, 85, 99, 1)"></circle><circle r="5" cx="411.65" cy="651.61" fill="rgba(75, 85, 99, 1)"></circle><circle r="5" cx="503.73" cy="396.53" fill="rgba(75, 85, 99, 1)"></circle><circle r="5" cx="505.47" cy="550.26" fill="rgba(75, 85, 99, 1)"></circle><circle r="5" cx="519.16" cy="637.94" fill="rgba(75, 85, 99, 1)"></circle><circle r="5" cx="710.81" cy="346.87" fill="rgba(75, 85, 99, 1)"></circle><circle r="5" cx="649.45" cy="510.55" fill="rgba(75, 85, 99, 1)"></circle><circle r="5" cx="861.84" cy="50.01" fill="rgba(75, 85, 99, 1)"></circle><circle r="5" cx="844.78" cy="205.75" fill="rgba(75, 85, 99, 1)"></circle><circle r="5" cx="790.62" cy="348.14" fill="rgba(75, 85, 99, 1)"></circle><circle r="5" cx="793.09" cy="489.72" fill="rgba(75, 85, 99, 1)"></circle><circle r="5" cx="839.86" cy="660.15" fill="rgba(75, 85, 99, 1)"></circle><circle r="5" cx="974.98" cy="-52.76" fill="rgba(75, 85, 99, 1)"></circle><circle r="5" cx="951.82" cy="87.5" fill="rgba(75, 85, 99, 1)"></circle><circle r="5" cx="1001.58" cy="212.76" fill="rgba(75, 85, 99, 1)"></circle><circle r="5" cx="992.24" cy="392.87" fill="rgba(75, 85, 99, 1)"></circle><circle r="5" cx="981.9" cy="547.19" fill="rgba(75, 85, 99, 1)"></circle><circle r="5" cx="1000.89" cy="648.72" fill="rgba(75, 85, 99, 1)"></circle><circle r="5" cx="1142.74" cy="-109.06" fill="rgba(75, 85, 99, 1)"></circle><circle r="5" cx="1098.84" cy="53.82" fill="rgba(75, 85, 99, 1)"></circle><circle r="5" cx="1152.9" cy="339.58" fill="rgba(75, 85, 99, 1)"></circle><circle r="5" cx="1091.55" cy="540.63" fill="rgba(75, 85, 99, 1)"></circle><circle r="5" cx="1141.16" cy="699.04" fill="rgba(75, 85, 99, 1)"></circle><circle r="5" cx="1248.14" cy="-54.73" fill="rgba(75, 85, 99, 1)"></circle><circle r="5" cx="1275.13" cy="86.13" fill="rgba(75, 85, 99, 1)"></circle><circle r="5" cx="1267.08" cy="254.76" fill="rgba(75, 85, 99, 1)"></circle><circle r="5" cx="1305.76" cy="400.45" fill="rgba(75, 85, 99, 1)"></circle><circle r="5" cx="1278.48" cy="539.03" fill="rgba(75, 85, 99, 1)"></circle><circle r="5" cx="1293.29" cy="663.44" fill="rgba(75, 85, 99, 1)"></circle><circle r="5" cx="1405.21" cy="-103.55" fill="rgba(75, 85, 99, 1)"></circle><circle r="5" cx="1443.58" cy="233.98" fill="rgba(75, 85, 99, 1)"></circle><circle r="5" cx="1437.53" cy="404.83" fill="rgba(75, 85, 99, 1)"></circle><circle r="5" cx="1390.18" cy="511.48" fill="rgba(75, 85, 99, 1)"></circle><circle r="5" cx="1404.26" cy="661.37" fill="rgba(75, 85, 99, 1)"></circle><circle r="5" cx="1577.32" cy="-64.87" fill="rgba(75, 85, 99, 1)"></circle><circle r="5" cx="1540.68" cy="68.35" fill="rgba(75, 85, 99, 1)"></circle><circle r="5" cx="1570.79" cy="261.73" fill="rgba(75, 85, 99, 1)"></circle><circle r="5" cx="1608.61" cy="367.89" fill="rgba(75, 85, 99, 1)"></circle><circle r="5" cx="1597.29" cy="554.43" fill="rgba(75, 85, 99, 1)"></circle><circle r="5" cx="1539.05" cy="672.71" fill="rgba(75, 85, 99, 1)"></circle><path d="M678.41 558.73L678.41 558.73" stroke="hsl(212.29999999999995, 14.3%, 23.2%)" stroke-width="1.5"></path><path d="M678.41 558.73L667.38 708.51" stroke="hsl(212.29999999999995, 14.3%, 23.2%)" stroke-width="1.5"></path><path d="M678.41 558.73L841.65 543.31" stroke="hsl(212.29999999999995, 14.3%, 23.2%)" stroke-width="1.5"></path><path d="M678.41 558.73L503.33 559.52" stroke="hsl(212.29999999999995, 14.3%, 23.2%)" stroke-width="1.5"></path><path d="M678.41 558.73L832.22 657.84" stroke="hsl(212.29999999999995, 14.3%, 23.2%)" stroke-width="1.5"></path><path d="M832.22 657.84L832.22 657.84" stroke="hsl(212.29999999999995, 14.3%, 23.2%)" stroke-width="1.5"></path><path d="M832.22 657.84L841.65 543.31" stroke="hsl(212.29999999999995, 14.3%, 23.2%)" stroke-width="1.5"></path><path d="M832.22 657.84L976.44 657.99" stroke="hsl(212.29999999999995, 14.3%, 23.2%)" stroke-width="1.5"></path><path d="M832.22 657.84L667.38 708.51" stroke="hsl(212.29999999999995, 14.3%, 23.2%)" stroke-width="1.5"></path><path d="M1134.67 541.25L1134.67 541.25" stroke="hsl(212.29999999999995, 14.3%, 23.2%)" stroke-width="1.5"></path><path d="M1134.67 541.25L1279.29 520.16" stroke="hsl(212.29999999999995, 14.3%, 23.2%)" stroke-width="1.5"></path><path d="M1134.67 541.25L976.44 657.99" stroke="hsl(212.29999999999995, 14.3%, 23.2%)" stroke-width="1.5"></path><path d="M1134.67 541.25L1144.91 341.48" stroke="hsl(212.29999999999995, 14.3%, 23.2%)" stroke-width="1.5"></path><path d="M1436.81 676.85L1436.81 676.85" stroke="hsl(212.29999999999995, 14.3%, 23.2%)" stroke-width="1.5"></path><path d="M1436.81 676.85L1418.51 545.84" stroke="hsl(212.29999999999995, 14.3%, 23.2%)" stroke-width="1.5"></path><path d="M1436.81 676.85L1306.51 703.02" stroke="hsl(212.29999999999995, 14.3%, 23.2%)" stroke-width="1.5"></path><path d="M1436.81 676.85L1562.03 558.26" stroke="hsl(212.29999999999995, 14.3%, 23.2%)" stroke-width="1.5"></path><path d="M1436.81 676.85L1279.29 520.16" stroke="hsl(212.29999999999995, 14.3%, 23.2%)" stroke-width="1.5"></path><path d="M1436.81 676.85L1427.27 373.96" stroke="hsl(212.29999999999995, 14.3%, 23.2%)" stroke-width="1.5"></path><path d="M1436.81 676.85L1602.78 395.6" stroke="hsl(212.29999999999995, 14.3%, 23.2%)" stroke-width="1.5"></path><path d="M1561.35 62.25L1561.35 62.25" stroke="hsl(212.29999999999995, 14.3%, 23.2%)" stroke-width="1.5"></path><path d="M1561.35 62.25L1539.07 -88.86" stroke="hsl(212.29999999999995, 14.3%, 23.2%)" stroke-width="1.5"></path><path d="M1561.35 62.25L1437.62 -59.59" stroke="hsl(212.29999999999995, 14.3%, 23.2%)" stroke-width="1.5"></path><path d="M1561.35 62.25L1605.84 257.08" stroke="hsl(212.29999999999995, 14.3%, 23.2%)" stroke-width="1.5"></path><path d="M1561.35 62.25L1388.07 212.52" stroke="hsl(212.29999999999995, 14.3%, 23.2%)" stroke-width="1.5"></path><path d="M1561.35 62.25L1284.65 104.25" stroke="hsl(212.29999999999995, 14.3%, 23.2%)" stroke-width="1.5"></path><path d="M68.54 538.32L68.54 538.32" stroke="hsl(212.29999999999995, 14.3%, 23.2%)" stroke-width="1.5"></path><path d="M68.54 538.32L224.67 544.15" stroke="hsl(212.29999999999995, 14.3%, 23.2%)" stroke-width="1.5"></path><path d="M68.54 538.32L99.23 702.03" stroke="hsl(212.29999999999995, 14.3%, 23.2%)" stroke-width="1.5"></path><path d="M68.54 538.32L254.89 690.38" stroke="hsl(212.29999999999995, 14.3%, 23.2%)" stroke-width="1.5"></path><path d="M68.54 538.32L363.27 499.95" stroke="hsl(212.29999999999995, 14.3%, 23.2%)" stroke-width="1.5"></path><path d="M99.23 702.03L99.23 702.03" stroke="hsl(212.29999999999995, 14.3%, 23.2%)" stroke-width="1.5"></path><path d="M99.23 702.03L254.89 690.38" stroke="hsl(212.29999999999995, 14.3%, 23.2%)" stroke-width="1.5"></path><path d="M99.23 702.03L224.67 544.15" stroke="hsl(212.29999999999995, 14.3%, 23.2%)" stroke-width="1.5"></path><path d="M224.67 544.15L224.67 544.15" stroke="hsl(212.29999999999995, 14.3%, 23.2%)" stroke-width="1.5"></path><path d="M224.67 544.15L363.27 499.95" stroke="hsl(212.29999999999995, 14.3%, 23.2%)" stroke-width="1.5"></path><path d="M224.67 544.15L254.89 690.38" stroke="hsl(212.29999999999995, 14.3%, 23.2%)" stroke-width="1.5"></path><path d="M254.89 690.38L254.89 690.38" stroke="hsl(212.29999999999995, 14.3%, 23.2%)" stroke-width="1.5"></path><path d="M254.89 690.38L390.33 692.49" stroke="hsl(212.29999999999995, 14.3%, 23.2%)" stroke-width="1.5"></path><path d="M363.27 499.95L363.27 499.95" stroke="hsl(212.29999999999995, 14.3%, 23.2%)" stroke-width="1.5"></path><path d="M363.27 499.95L503.33 559.52" stroke="hsl(212.29999999999995, 14.3%, 23.2%)" stroke-width="1.5"></path><path d="M363.27 499.95L390.33 692.49" stroke="hsl(212.29999999999995, 14.3%, 23.2%)" stroke-width="1.5"></path><path d="M363.27 499.95L535.99 398.53" stroke="hsl(212.29999999999995, 14.3%, 23.2%)" stroke-width="1.5"></path><path d="M390.33 692.49L390.33 692.49" stroke="hsl(212.29999999999995, 14.3%, 23.2%)" stroke-width="1.5"></path><path d="M390.33 692.49L503.33 559.52" stroke="hsl(212.29999999999995, 14.3%, 23.2%)" stroke-width="1.5"></path><path d="M535.99 398.53L535.99 398.53" stroke="hsl(212.29999999999995, 14.3%, 23.2%)" stroke-width="1.5"></path><path d="M535.99 398.53L503.33 559.52" stroke="hsl(212.29999999999995, 14.3%, 23.2%)" stroke-width="1.5"></path><path d="M503.33 559.52L503.33 559.52" stroke="hsl(212.29999999999995, 14.3%, 23.2%)" stroke-width="1.5"></path><path d="M667.38 708.51L667.38 708.51" stroke="hsl(212.29999999999995, 14.3%, 23.2%)" stroke-width="1.5"></path><path d="M794.03 376.07L794.03 376.07" stroke="hsl(212.29999999999995, 14.3%, 23.2%)" stroke-width="1.5"></path><path d="M794.03 376.07L841.65 543.31" stroke="hsl(212.29999999999995, 14.3%, 23.2%)" stroke-width="1.5"></path><path d="M794.03 376.07L966.75 353.43" stroke="hsl(212.29999999999995, 14.3%, 23.2%)" stroke-width="1.5"></path><path d="M794.03 376.07L678.41 558.73" stroke="hsl(212.29999999999995, 14.3%, 23.2%)" stroke-width="1.5"></path><path d="M841.65 543.31L841.65 543.31" stroke="hsl(212.29999999999995, 14.3%, 23.2%)" stroke-width="1.5"></path><path d="M966.75 353.43L966.75 353.43" stroke="hsl(212.29999999999995, 14.3%, 23.2%)" stroke-width="1.5"></path><path d="M976.44 657.99L976.44 657.99" stroke="hsl(212.29999999999995, 14.3%, 23.2%)" stroke-width="1.5"></path><path d="M976.44 657.99L841.65 543.31" stroke="hsl(212.29999999999995, 14.3%, 23.2%)" stroke-width="1.5"></path><path d="M976.44 657.99L966.75 353.43" stroke="hsl(212.29999999999995, 14.3%, 23.2%)" stroke-width="1.5"></path><path d="M976.44 657.99L667.38 708.51" stroke="hsl(212.29999999999995, 14.3%, 23.2%)" stroke-width="1.5"></path><path d="M976.44 657.99L678.41 558.73" stroke="hsl(212.29999999999995, 14.3%, 23.2%)" stroke-width="1.5"></path><path d="M1094.81 229.12L1094.81 229.12" stroke="hsl(212.29999999999995, 14.3%, 23.2%)" stroke-width="1.5"></path><path d="M1094.81 229.12L1144.91 341.48" stroke="hsl(212.29999999999995, 14.3%, 23.2%)" stroke-width="1.5"></path><path d="M1094.81 229.12L966.75 353.43" stroke="hsl(212.29999999999995, 14.3%, 23.2%)" stroke-width="1.5"></path><path d="M1094.81 229.12L1253.34 351.98" stroke="hsl(212.29999999999995, 14.3%, 23.2%)" stroke-width="1.5"></path><path d="M1094.81 229.12L1284.65 104.25" stroke="hsl(212.29999999999995, 14.3%, 23.2%)" stroke-width="1.5"></path><path d="M1144.91 341.48L1144.91 341.48" stroke="hsl(212.29999999999995, 14.3%, 23.2%)" stroke-width="1.5"></path><path d="M1144.91 341.48L1253.34 351.98" stroke="hsl(212.29999999999995, 14.3%, 23.2%)" stroke-width="1.5"></path><path d="M1144.91 341.48L966.75 353.43" stroke="hsl(212.29999999999995, 14.3%, 23.2%)" stroke-width="1.5"></path><path d="M1284.65 104.25L1284.65 104.25" stroke="hsl(212.29999999999995, 14.3%, 23.2%)" stroke-width="1.5"></path><path d="M1284.65 104.25L1388.07 212.52" stroke="hsl(212.29999999999995, 14.3%, 23.2%)" stroke-width="1.5"></path><path d="M1284.65 104.25L1437.62 -59.59" stroke="hsl(212.29999999999995, 14.3%, 23.2%)" stroke-width="1.5"></path><path d="M1284.65 104.25L1253.34 351.98" stroke="hsl(212.29999999999995, 14.3%, 23.2%)" stroke-width="1.5"></path><path d="M1253.34 351.98L1253.34 351.98" stroke="hsl(212.29999999999995, 14.3%, 23.2%)" stroke-width="1.5"></path><path d="M1253.34 351.98L1279.29 520.16" stroke="hsl(212.29999999999995, 14.3%, 23.2%)" stroke-width="1.5"></path><path d="M1253.34 351.98L1427.27 373.96" stroke="hsl(212.29999999999995, 14.3%, 23.2%)" stroke-width="1.5"></path><path d="M1253.34 351.98L1388.07 212.52" stroke="hsl(212.29999999999995, 14.3%, 23.2%)" stroke-width="1.5"></path><path d="M1279.29 520.16L1279.29 520.16" stroke="hsl(212.29999999999995, 14.3%, 23.2%)" stroke-width="1.5"></path><path d="M1279.29 520.16L1418.51 545.84" stroke="hsl(212.29999999999995, 14.3%, 23.2%)" stroke-width="1.5"></path><path d="M1306.51 703.02L1306.51 703.02" stroke="hsl(212.29999999999995, 14.3%, 23.2%)" stroke-width="1.5"></path><path d="M1306.51 703.02L1279.29 520.16" stroke="hsl(212.29999999999995, 14.3%, 23.2%)" stroke-width="1.5"></path><path d="M1437.62 -59.59L1437.62 -59.59" stroke="hsl(212.29999999999995, 14.3%, 23.2%)" stroke-width="1.5"></path><path d="M1437.62 -59.59L1539.07 -88.86" stroke="hsl(212.29999999999995, 14.3%, 23.2%)" stroke-width="1.5"></path><path d="M1437.62 -59.59L1388.07 212.52" stroke="hsl(212.29999999999995, 14.3%, 23.2%)" stroke-width="1.5"></path><path d="M1437.62 -59.59L1605.84 257.08" stroke="hsl(212.29999999999995, 14.3%, 23.2%)" stroke-width="1.5"></path><path d="M1437.62 -59.59L1427.27 373.96" stroke="hsl(212.29999999999995, 14.3%, 23.2%)" stroke-width="1.5"></path><path d="M1388.07 212.52L1388.07 212.52" stroke="hsl(212.29999999999995, 14.3%, 23.2%)" stroke-width="1.5"></path><path d="M1388.07 212.52L1427.27 373.96" stroke="hsl(212.29999999999995, 14.3%, 23.2%)" stroke-width="1.5"></path><path d="M1427.27 373.96L1427.27 373.96" stroke="hsl(212.29999999999995, 14.3%, 23.2%)" stroke-width="1.5"></path><path d="M1427.27 373.96L1418.51 545.84" stroke="hsl(212.29999999999995, 14.3%, 23.2%)" stroke-width="1.5"></path><path d="M1427.27 373.96L1602.78 395.6" stroke="hsl(212.29999999999995, 14.3%, 23.2%)" stroke-width="1.5"></path><path d="M1427.27 373.96L1279.29 520.16" stroke="hsl(212.29999999999995, 14.3%, 23.2%)" stroke-width="1.5"></path><path d="M1427.27 373.96L1605.84 257.08" stroke="hsl(212.29999999999995, 14.3%, 23.2%)" stroke-width="1.5"></path><path d="M1418.51 545.84L1418.51 545.84" stroke="hsl(212.29999999999995, 14.3%, 23.2%)" stroke-width="1.5"></path><path d="M1418.51 545.84L1562.03 558.26" stroke="hsl(212.29999999999995, 14.3%, 23.2%)" stroke-width="1.5"></path><path d="M1418.51 545.84L1306.51 703.02" stroke="hsl(212.29999999999995, 14.3%, 23.2%)" stroke-width="1.5"></path><path d="M1418.51 545.84L1602.78 395.6" stroke="hsl(212.29999999999995, 14.3%, 23.2%)" stroke-width="1.5"></path><path d="M1539.07 -88.86L1539.07 -88.86" stroke="hsl(212.29999999999995, 14.3%, 23.2%)" stroke-width="1.5"></path><path d="M1605.84 257.08L1605.84 257.08" stroke="hsl(212.29999999999995, 14.3%, 23.2%)" stroke-width="1.5"></path><path d="M1605.84 257.08L1602.78 395.6" stroke="hsl(212.29999999999995, 14.3%, 23.2%)" stroke-width="1.5"></path><path d="M1602.78 395.6L1602.78 395.6" stroke="hsl(212.29999999999995, 14.3%, 23.2%)" stroke-width="1.5"></path><path d="M1602.78 395.6L1562.03 558.26" stroke="hsl(212.29999999999995, 14.3%, 23.2%)" stroke-width="1.5"></path><path d="M1602.78 395.6L1388.07 212.52" stroke="hsl(212.29999999999995, 14.3%, 23.2%)" stroke-width="1.5"></path><path d="M1562.03 558.26L1562.03 558.26" stroke="hsl(212.29999999999995, 14.3%, 23.2%)" stroke-width="1.5"></path><path d="M1562.03 558.26L1427.27 373.96" stroke="hsl(212.29999999999995, 14.3%, 23.2%)" stroke-width="1.5"></path><path d="M1562.03 558.26L1279.29 520.16" stroke="hsl(212.29999999999995, 14.3%, 23.2%)" stroke-width="1.5"></path><path d="M1562.03 558.26L1306.51 703.02" stroke="hsl(212.29999999999995, 14.3%, 23.2%)" stroke-width="1.5"></path><circle r="25" cx="678.41" cy="558.73" fill="url(&quot;#SvgjsRadialGradient1061&quot;)"></circle><circle r="25" cx="832.22" cy="657.84" fill="url(&quot;#SvgjsRadialGradient1061&quot;)"></circle><circle r="25" cx="1134.67" cy="541.25" fill="url(&quot;#SvgjsRadialGradient1061&quot;)"></circle><circle r="25" cx="1436.81" cy="676.85" fill="url(&quot;#SvgjsRadialGradient1061&quot;)"></circle><circle r="25" cx="1561.35" cy="62.25" fill="url(&quot;#SvgjsRadialGradient1061&quot;)"></circle><circle r="5" cx="68.54" cy="538.32" fill="#93969a"></circle><circle r="5" cx="99.23" cy="702.03" fill="#93969a"></circle><circle r="5" cx="224.67" cy="544.15" fill="#93969a"></circle><circle r="5" cx="254.89" cy="690.38" fill="#93969a"></circle><circle r="5" cx="363.27" cy="499.95" fill="#93969a"></circle><circle r="5" cx="390.33" cy="692.49" fill="#93969a"></circle><circle r="5" cx="535.99" cy="398.53" fill="#93969a"></circle><circle r="5" cx="503.33" cy="559.52" fill="#93969a"></circle><circle r="5" cx="667.38" cy="708.51" fill="#93969a"></circle><circle r="5" cx="794.03" cy="376.07" fill="#93969a"></circle><circle r="5" cx="841.65" cy="543.31" fill="#93969a"></circle><circle r="5" cx="966.75" cy="353.43" fill="#93969a"></circle><circle r="5" cx="976.44" cy="657.99" fill="#93969a"></circle><circle r="5" cx="1094.81" cy="229.12" fill="#93969a"></circle><circle r="5" cx="1144.91" cy="341.48" fill="#93969a"></circle><circle r="5" cx="1284.65" cy="104.25" fill="#93969a"></circle><circle r="5" cx="1253.34" cy="351.98" fill="#93969a"></circle><circle r="5" cx="1279.29" cy="520.16" fill="#93969a"></circle><circle r="5" cx="1306.51" cy="703.02" fill="#93969a"></circle><circle r="5" cx="1437.62" cy="-59.59" fill="#93969a"></circle><circle r="5" cx="1388.07" cy="212.52" fill="#93969a"></circle><circle r="5" cx="1427.27" cy="373.96" fill="#93969a"></circle><circle r="5" cx="1418.51" cy="545.84" fill="#93969a"></circle><circle r="5" cx="1539.07" cy="-88.86" fill="#93969a"></circle><circle r="5" cx="1605.84" cy="257.08" fill="#93969a"></circle><circle r="5" cx="1602.78" cy="395.6" fill="#93969a"></circle><circle r="5" cx="1562.03" cy="558.26" fill="#93969a"></circle></g><defs><mask id="SvgjsMask1060"><rect width="1440" height="560" fill="#ffffff"></rect></mask><radialGradient id="SvgjsRadialGradient1061"><stop stop-color="#ffffff" offset="0.1"></stop><stop stop-color="rgba(39, 45, 52, 1)" offset="0.2"></stop><stop stop-color="rgba(39, 45, 52, 0)" offset="1"></stop></radialGradient></defs></svg>